<svg width="40px" height="40px" viewBox="0 -2 24 24" xmlns="http://www.w3.org/2000/svg">
  <g id="Lager_18" data-name="Lager 18" transform="translate(-3 -5)">
    <path id="Path_21" data-name="Path 21" d="M8.909,15.681a1.97,1.97,0,0,1-.278-.732,1,1,0,0,1,.278-.679l5.517-5.732a2.116,2.116,0,0,0,.01-2.887l-.028-.03a1.958,1.958,0,0,0-2.854-.008L3.287,14.226A1.077,1.077,0,0,0,3,14.949a2.115,2.115,0,0,0,.287.775l8.267,8.665a1.959,1.959,0,0,0,2.854-.012l.028-.036a2.134,2.134,0,0,0-.01-2.9Z" fill="#006400"/>
    <path id="Path_22" data-name="Path 22" d="M20.909,15.681a1.97,1.97,0,0,1-.278-.732,1,1,0,0,1,.278-.679l5.517-5.732a2.116,2.116,0,0,0,.01-2.887l-.028-.03a1.958,1.958,0,0,0-2.854-.008l-8.267,8.613a1.077,1.077,0,0,0-.287.723,2.115,2.115,0,0,0,.287.775l8.267,8.665a1.959,1.959,0,0,0,2.854-.012l.028-.036a2.134,2.134,0,0,0-.01-2.9Z" fill="#006400"/>
  </g>
</svg>
