<svg width="40px" height="40px" viewBox="0 -2 24 24" xmlns="http://www.w3.org/2000/svg">
  <g id="Lager_17" data-name="Lager 17" transform="translate(-4 -6)">
    <path id="Path_19" data-name="Path 19" d="M22.091,16.681a1.97,1.97,0,0,0,.278-.732,1,1,0,0,0-.278-.679L16.574,9.538a2.116,2.116,0,0,1-.01-2.887l.028-.03a1.958,1.958,0,0,1,2.854-.008l8.267,8.613a1.077,1.077,0,0,1,.287.723,2.115,2.115,0,0,1-.287.775l-8.267,8.665a1.959,1.959,0,0,1-2.854-.012l-.028-.036a2.134,2.134,0,0,1,.01-2.9Z" fill="#006400"/>
    <path id="Path_20" data-name="Path 20" d="M10.091,16.681a1.97,1.97,0,0,0,.278-.732,1,1,0,0,0-.278-.679L4.574,9.538a2.116,2.116,0,0,1-.01-2.887l.028-.03a1.958,1.958,0,0,1,2.854-.008l8.267,8.613a1.077,1.077,0,0,1,.287.723,2.115,2.115,0,0,1-.287.775L7.446,25.389a1.959,1.959,0,0,1-2.854-.012l-.028-.036a2.134,2.134,0,0,1,.01-2.9Z" fill="#006400"/>
  </g>
</svg>
